<mxfile type="github" version="13.7.6" host="app.diagrams.net" modified="2020-09-29T08:32:19.852Z" agent="5.0 (Windows NT 10.0; Win64; x64) AppleWebKit/537.36 (KHTML, like Gecko) Chrome/70.0.3538.102 Safari/537.36 Edge/18.19041" etag="8b0S54mJ1zeD4aGFBF7E">
  <diagram id="p6UrjECbgSdRof4HY0eb" name="Page-1">
    <mxGraphModel grid="1" dx="1422" dy="792" gridSize="10" guides="1" tooltips="1" connect="1" arrows="1" fold="1" page="1" pageScale="1" pageWidth="827" pageHeight="1169" math="0" shadow="0">
      <root>
        <mxCell id="0" />
        <mxCell id="1" parent="0" />
        <mxCell id="dFT03Ro-pLz-tinxZf4C-1" value="" parent="1" style="whiteSpace=wrap;html=1;aspect=fixed;fillColor=#e1d5e7;strokeColor=#9673a6;" vertex="1">
          <mxGeometry as="geometry" x="260" y="200" width="150" height="150" />
        </mxCell>
        <mxCell id="dFT03Ro-pLz-tinxZf4C-3" value="Разработка сайта для размещения фотографий&amp;nbsp;" parent="1" style="text;html=1;strokeColor=none;fillColor=none;align=center;verticalAlign=middle;whiteSpace=wrap;rounded=0;" vertex="1">
          <mxGeometry as="geometry" x="270" y="240" width="130" height="70" />
        </mxCell>
        <mxCell id="dFT03Ro-pLz-tinxZf4C-4" value="" parent="1" style="endArrow=classic;html=1;" edge="1">
          <mxGeometry as="geometry" width="50" height="50" relative="1">
            <mxPoint as="sourcePoint" x="140" y="290" />
            <mxPoint as="targetPoint" x="260" y="290" />
          </mxGeometry>
        </mxCell>
        <mxCell id="dFT03Ro-pLz-tinxZf4C-5" value="" parent="1" style="endArrow=classic;html=1;" edge="1">
          <mxGeometry as="geometry" width="50" height="50" relative="1">
            <mxPoint as="sourcePoint" x="140" y="320" />
            <mxPoint as="targetPoint" x="260" y="320" />
          </mxGeometry>
        </mxCell>
        <mxCell id="dFT03Ro-pLz-tinxZf4C-6" value="" parent="1" style="endArrow=classic;html=1;" edge="1">
          <mxGeometry as="geometry" width="50" height="50" relative="1">
            <mxPoint as="sourcePoint" x="140" y="260" />
            <mxPoint as="targetPoint" x="260" y="260" />
          </mxGeometry>
        </mxCell>
        <mxCell id="dFT03Ro-pLz-tinxZf4C-7" value="" parent="1" style="endArrow=classic;html=1;" edge="1">
          <mxGeometry as="geometry" width="50" height="50" relative="1">
            <mxPoint as="sourcePoint" x="140" y="230" />
            <mxPoint as="targetPoint" x="260" y="230" />
          </mxGeometry>
        </mxCell>
        <mxCell id="dFT03Ro-pLz-tinxZf4C-8" value="" parent="1" style="endArrow=classic;html=1;" edge="1">
          <mxGeometry as="geometry" width="50" height="50" relative="1">
            <mxPoint as="sourcePoint" x="410" y="320" />
            <mxPoint as="targetPoint" x="530" y="320" />
          </mxGeometry>
        </mxCell>
        <mxCell id="dFT03Ro-pLz-tinxZf4C-9" value="" parent="1" style="endArrow=classic;html=1;" edge="1">
          <mxGeometry as="geometry" width="50" height="50" relative="1">
            <mxPoint as="sourcePoint" x="410" y="290" />
            <mxPoint as="targetPoint" x="530" y="290" />
          </mxGeometry>
        </mxCell>
        <mxCell id="dFT03Ro-pLz-tinxZf4C-10" value="" parent="1" style="endArrow=classic;html=1;" edge="1">
          <mxGeometry as="geometry" width="50" height="50" relative="1">
            <mxPoint as="sourcePoint" x="410" y="260" />
            <mxPoint as="targetPoint" x="530" y="260" />
          </mxGeometry>
        </mxCell>
        <mxCell id="dFT03Ro-pLz-tinxZf4C-11" value="" parent="1" style="endArrow=classic;html=1;" edge="1">
          <mxGeometry as="geometry" width="50" height="50" relative="1">
            <mxPoint as="sourcePoint" x="410" y="230" />
            <mxPoint as="targetPoint" x="530" y="230" />
          </mxGeometry>
        </mxCell>
        <mxCell id="dFT03Ro-pLz-tinxZf4C-12" value="" parent="1" style="endArrow=classic;html=1;" edge="1">
          <mxGeometry as="geometry" width="50" height="50" relative="1">
            <mxPoint as="sourcePoint" x="310" y="81" />
            <mxPoint as="targetPoint" x="310" y="200" />
          </mxGeometry>
        </mxCell>
        <mxCell id="dFT03Ro-pLz-tinxZf4C-13" value="" parent="1" style="endArrow=classic;html=1;" edge="1">
          <mxGeometry as="geometry" width="50" height="50" relative="1">
            <mxPoint as="sourcePoint" x="334.5" y="81" />
            <mxPoint as="targetPoint" x="334.5" y="200" />
          </mxGeometry>
        </mxCell>
        <mxCell id="dFT03Ro-pLz-tinxZf4C-17" value="" parent="1" style="endArrow=classic;html=1;" edge="1">
          <mxGeometry as="geometry" width="50" height="50" relative="1">
            <mxPoint as="sourcePoint" x="380" y="350" />
            <mxPoint as="targetPoint" x="380" y="469" />
          </mxGeometry>
        </mxCell>
        <mxCell id="dFT03Ro-pLz-tinxZf4C-18" value="" parent="1" style="endArrow=classic;html=1;" edge="1">
          <mxGeometry as="geometry" width="50" height="50" relative="1">
            <mxPoint as="sourcePoint" x="350" y="350" />
            <mxPoint as="targetPoint" x="350" y="469" />
          </mxGeometry>
        </mxCell>
        <mxCell id="dFT03Ro-pLz-tinxZf4C-19" value="" parent="1" style="endArrow=classic;html=1;" edge="1">
          <mxGeometry as="geometry" width="50" height="50" relative="1">
            <mxPoint as="sourcePoint" x="320" y="350" />
            <mxPoint as="targetPoint" x="320" y="469" />
          </mxGeometry>
        </mxCell>
        <mxCell id="dFT03Ro-pLz-tinxZf4C-20" value="" parent="1" style="endArrow=classic;html=1;" edge="1">
          <mxGeometry as="geometry" width="50" height="50" relative="1">
            <mxPoint as="sourcePoint" x="290" y="350" />
            <mxPoint as="targetPoint" x="290" y="469" />
          </mxGeometry>
        </mxCell>
        <mxCell id="dFT03Ro-pLz-tinxZf4C-27" value="Тип фото" parent="1" style="text;html=1;strokeColor=none;fillColor=none;align=center;verticalAlign=middle;whiteSpace=wrap;rounded=0;rotation=-90;" vertex="1">
          <mxGeometry as="geometry" x="260" y="125" width="80" height="39" />
        </mxCell>
        <mxCell id="dFT03Ro-pLz-tinxZf4C-29" value="Размер фото" parent="1" style="text;html=1;strokeColor=none;fillColor=none;align=center;verticalAlign=middle;whiteSpace=wrap;rounded=0;rotation=-90;" vertex="1">
          <mxGeometry as="geometry" x="280" y="125" width="91" height="30" />
        </mxCell>
        <mxCell id="dFT03Ro-pLz-tinxZf4C-30" value="Фотография" parent="1" style="text;html=1;strokeColor=none;fillColor=none;align=center;verticalAlign=middle;whiteSpace=wrap;rounded=0;" vertex="1">
          <mxGeometry as="geometry" x="180" y="210" width="40" height="20" />
        </mxCell>
        <mxCell id="dFT03Ro-pLz-tinxZf4C-31" value="ФИО" parent="1" style="text;html=1;strokeColor=none;fillColor=none;align=center;verticalAlign=middle;whiteSpace=wrap;rounded=0;" vertex="1">
          <mxGeometry as="geometry" x="160" y="239" width="70" height="25" />
        </mxCell>
        <mxCell id="dFT03Ro-pLz-tinxZf4C-32" value="Качество фото" parent="1" style="text;html=1;strokeColor=none;fillColor=none;align=center;verticalAlign=middle;whiteSpace=wrap;rounded=0;rotation=-90;" vertex="1">
          <mxGeometry as="geometry" x="300" y="125" width="100" height="30" />
        </mxCell>
        <mxCell id="dFT03Ro-pLz-tinxZf4C-33" value="" parent="1" style="endArrow=classic;html=1;" edge="1">
          <mxGeometry as="geometry" width="50" height="50" relative="1">
            <mxPoint as="sourcePoint" x="360" y="81" />
            <mxPoint as="targetPoint" x="360" y="200" />
          </mxGeometry>
        </mxCell>
        <mxCell id="dFT03Ro-pLz-tinxZf4C-37" value="Пользователь&lt;br&gt;или фотограф" parent="1" style="text;html=1;strokeColor=none;fillColor=none;align=center;verticalAlign=middle;whiteSpace=wrap;rounded=0;rotation=-90;" vertex="1">
          <mxGeometry as="geometry" x="220" y="390" width="112" height="30" />
        </mxCell>
      </root>
    </mxGraphModel>
  </diagram>
</mxfile>
